<svg xmlns="http://www.w3.org/2000/svg" viewBox="0 0 730 730" width="256" height="256" fill="none">
<g transform="translate(21.0,0)"><path d="M514.935 0.0130279C500.381 0.287642 484.137 3.09613 465.674 9.1807C460.548 10.8699 455.118 11.4273 449.762 10.7651C367.206 0.558702 221.045 16.9958 115.092 117.357C86.701 141.529 62.0135 171.216 42.6072 205.747C-48.7584 368.716 11.529 581.06 178.373 679.966C344.935 778.716 552.904 726.372 644.154 563.404C719.31 429.81 683.219 248.06 587.279 152.154C577.719 142.935 567.283 140.184 550.219 141.56C550.219 141.56 541.219 142.993 534.219 148.56C527.219 154.126 524.719 160.06 524.719 160.06C522.219 165.06 521.219 177.06 525.248 188.247C534.5 209.56 619.058 333.935 595.56 462.561C543.902 617.466 354.721 665.811 237.219 604.561C90.9375 520.186 79.25 362.466 139.719 254.185C176.75 187.779 234.125 141.247 302.719 141.56C312.095 141.56 339.114 147.895 363.297 154.126C380.822 158.641 397.406 142.067 394.092 124.275C393.725 122.308 393.368 120.332 393.015 118.345C391.893 112.006 395.115 105.704 400.873 102.826C414.083 96.2206 425.902 86.8351 436.672 74.8964C439.085 72.2222 441.881 69.6914 445.252 68.4255C462.249 62.0444 469.552 82.1346 457.309 95.5391C452.45 100.858 447.333 105.822 441.94 110.376C431.692 119.028 425.373 132.199 428.861 145.149C433.272 161.529 439.453 179.051 447.904 196.06C465.87 229.081 497.236 264.355 523.137 276.17C530.226 279.404 534.829 271.922 530.617 265.367C516.018 242.648 503.519 221.967 498.373 202.154C491.342 175.122 493.529 150.279 507.904 132.935C518.529 120.013 535.248 113.607 554.31 114.076C560.717 114.232 567.279 115.013 574.154 116.576C597.844 122.276 624.833 136.591 654.877 160.697C659.302 164.248 665.881 163.646 669.713 159.461C683.227 144.701 699.959 127.616 674.779 109.388C645 87.8303 603.842 -1.23697 514.935 0.0130279ZM519.467 25.638C526.342 25.7943 534.154 27.513 541.967 30.7943C562.279 39.2318 575.56 55.4818 571.498 66.888C567.435 78.2943 547.592 80.638 527.123 72.0443C506.654 63.4505 493.373 47.3568 497.435 35.9505C499.779 29.5443 507.123 25.9505 516.654 25.638H519.467ZM390.401 37.6586C398.367 37.7889 404.539 44.5526 404.241 52.5141L404.214 53.2209C403.924 60.9759 397.307 66.909 389.549 66.7358C381.787 66.5625 375.232 60.5 375.024 52.7393L375.006 52.078C374.793 44.1716 380.969 37.5429 388.877 37.637C389.385 37.643 389.893 37.6502 390.401 37.6586ZM332.719 39.8568C339.808 39.3769 344.908 44.2579 345.592 51.3307L345.98 55.3424C346.703 62.8117 340.854 69.4686 333.409 70.4122C325.647 71.3961 318.547 66.1901 317.084 58.5036C315.585 50.6215 320.615 41.5291 328.543 40.2943C329.658 40.1206 331.009 39.9725 332.719 39.8568ZM271.413 54.7368C278.953 52.3495 286.655 57.1453 288.633 64.803L288.805 65.4694C290.729 72.919 286.254 80.5052 278.934 82.8764C271.635 85.2411 263.726 81.5773 261.054 74.3842L260.911 73.9971C258.069 66.3473 262.089 57.7607 269.85 55.2384C270.374 55.068 270.895 54.9009 271.413 54.7368ZM214.39 78.6518C221.533 74.9107 230.344 77.8474 233.881 85.0936L234.044 85.4276C237.461 92.4277 234.097 101.054 227.2 104.676C220.319 108.29 212.098 105.776 208.228 99.0351L208.035 98.6989C204.018 91.7018 206.537 82.771 213.682 79.0231C213.918 78.8991 214.154 78.7753 214.39 78.6518ZM183.753 115.058C188.179 121.323 186.514 130.155 180.472 134.881C174.418 139.615 165.929 138.702 160.945 132.853L160.312 132.11C155.145 126.046 155.763 116.982 162.031 112.065C162.235 111.905 162.438 111.746 162.641 111.588C169.232 106.44 178.928 108.227 183.753 115.058ZM118.536 152.664C124.017 146.632 133.37 146.611 139.176 152.331L139.712 152.858C145.141 158.206 144.935 167.253 139.816 172.899C134.564 178.693 125.942 179.2 119.897 174.239L119.447 173.87C113.23 168.768 112.284 159.595 117.668 153.623C117.958 153.301 118.247 152.982 118.536 152.664ZM567.378 180.722C573.342 175.233 582.671 175.652 587.943 181.809C588.207 182.117 588.469 182.425 588.731 182.732C593.95 188.863 592.753 197.997 586.374 202.91L585.836 203.325C579.729 208.029 570.691 206.545 565.667 200.699C560.636 194.845 561.263 186.35 566.943 181.123L567.378 180.722ZM81.8666 201.09C86.0973 194.225 95.1522 192.677 101.786 197.261L102.347 197.648C108.726 202.056 110.119 211.202 106.048 217.801C102.006 224.353 93.8018 226.164 87.1032 222.371L86.6667 222.124C79.5493 218.094 77.0254 209.002 81.2926 202.025C81.4838 201.712 81.6751 201.4 81.8666 201.09ZM603.08 226.829C609.9 222.512 618.954 224.496 622.929 231.521C623.196 231.993 623.461 232.465 623.724 232.936C627.636 239.946 624.673 248.648 617.509 252.272L616.864 252.599C609.999 256.073 601.52 253.075 597.725 246.382C593.917 239.666 595.992 231.315 602.516 227.186L603.08 226.829ZM53.7114 254.039C56.6328 246.794 65.1753 244.403 72.275 247.662L73.8807 248.4C80.866 251.607 83.6964 260.437 80.8248 267.567C77.942 274.724 70.204 277.898 62.9264 275.334L61.7813 274.931C54.3108 272.299 49.9085 264.322 52.622 256.881C52.9699 255.927 53.3324 254.979 53.7114 254.039ZM632.268 279.587C636.107 278.883 640.25 279.477 642.874 282.367C644.66 284.334 646.153 286.67 647.417 289.225C651.033 296.534 645.816 304.738 637.926 306.798L636.917 307.061C629.699 308.946 622.182 304.333 619.924 297.222C617.54 289.712 621.57 281.751 629.288 280.164C630.255 279.966 631.24 279.776 632.268 279.587ZM36.488 313.571C38.0521 305.622 46.0204 300.976 53.8614 303.014L54.5681 303.198C62.0136 305.133 66.403 313.188 64.8622 320.725C63.3054 328.34 56.1553 332.985 48.4908 331.695L48.1037 331.63C40.1188 330.286 34.725 322.649 36.2674 314.7C36.3407 314.323 36.4142 313.946 36.488 313.571ZM642.928 335.484C651.34 334.069 659.249 340.177 660.208 348.653C660.221 348.768 660.234 348.883 660.247 348.998C661.151 356.997 654.998 363.918 646.959 364.35C639.075 364.774 632.24 358.742 631.348 350.896C630.515 343.561 635.31 336.769 642.589 335.541C642.702 335.522 642.815 335.503 642.928 335.484ZM29.6872 374.054C29.8159 366.206 36.5604 360.16 44.3982 360.585C52.3039 361.015 58.4196 367.916 58.6001 375.831C58.7722 383.374 52.9221 389.565 45.3825 389.848L44.6883 389.874C36.4572 390.182 29.5549 383.689 29.6662 375.453C29.6725 374.986 29.6795 374.519 29.6872 374.054ZM631.856 406.763C632.497 399.04 639.035 393.115 646.773 393.529L647.378 393.561C655.434 393.992 661.666 400.879 660.946 408.914C660.901 409.413 660.855 409.911 660.808 410.408C660.058 418.373 652.715 423.94 644.786 422.868L644.322 422.806C636.582 421.76 631.209 414.546 631.856 406.763ZM63.2969 431.526C64.6228 438.833 60.1255 445.726 52.899 447.434L51.7518 447.705C43.907 449.56 36.0347 444.713 34.6993 436.764C34.6082 436.222 34.5187 435.68 34.4306 435.138C33.1704 427.384 38.6877 420.207 46.4727 419.157L47.272 419.049C54.9045 418.018 61.9217 423.949 63.2969 431.526ZM621.728 461.495C623.829 454.137 631.241 449.388 638.688 451.147L639.628 451.369C647.342 453.192 652.193 460.873 650.063 468.509C649.946 468.926 649.829 469.343 649.711 469.76C647.507 477.53 639.109 481.64 631.433 479.125C631.196 479.047 630.959 478.97 630.723 478.892C623.512 476.536 619.646 468.789 621.728 461.495ZM60.2882 475.638C67.6469 473.133 75.8859 477.336 78.8174 484.535C81.6606 491.517 78.5153 499.217 71.6672 502.37L70.61 502.857C63.3105 506.218 54.6489 503.209 51.769 495.706C51.527 495.076 51.2881 494.444 51.0517 493.811C48.3033 486.449 52.3116 478.351 59.7516 475.821C59.9306 475.76 60.1095 475.699 60.2882 475.638ZM602.106 513.068C605.312 506.208 613.14 503.415 620.11 506.373L620.875 506.698C628.394 509.889 631.932 518.563 628.311 525.884C628.156 526.197 628.002 526.508 627.847 526.819C624.254 534.033 615.196 536.716 608.113 532.872C601.267 529.157 598.809 520.126 602.106 513.068ZM85.3192 527.338C91.7972 523.715 100.171 526.438 104.184 532.682C108.486 539.378 106.893 548.212 100.519 552.977C94.1575 557.734 85.0187 556.471 80.5171 549.927C80.1289 549.362 79.744 548.8 79.3631 548.24C74.7289 541.43 76.5423 532.327 83.7002 528.251C84.2379 527.945 84.7779 527.64 85.3192 527.338ZM573.352 561.495C577.843 555.193 586.53 553.448 592.957 557.76L593.409 558.063C600.118 562.565 601.955 571.691 597.272 578.276C597.061 578.572 596.851 578.866 596.641 579.16C591.965 585.689 582.798 586.753 576.473 581.805L576.055 581.477C569.919 576.678 568.831 567.839 573.352 561.495ZM119.429 575.19C125.208 569.91 134.219 570.415 139.741 575.964C145.155 581.404 145.431 590.113 140.213 595.742L139.799 596.189C134.274 602.149 124.952 602.477 119.211 596.725C118.976 596.489 118.741 596.253 118.507 596.018C112.793 590.273 113.132 580.944 119.114 575.478L119.429 575.19ZM536.918 603.479C542.607 598.059 551.316 598.139 557.017 603.545L557.262 603.779C563.111 609.326 563.319 618.632 557.545 624.256C557.244 624.55 556.943 624.842 556.643 625.132C550.756 630.825 541.386 630.118 536.028 623.925L535.533 623.353C530.576 617.624 531.434 608.704 536.918 603.479ZM162.357 614.632C167.054 608.44 175.8 607.221 182.14 611.716C188.466 616.203 190.412 624.932 186.187 631.436L185.828 631.988C181.44 638.743 172.422 640.704 165.871 636.018C165.57 635.803 165.269 635.587 164.969 635.37C158.428 630.663 157.178 621.462 162.047 615.041L162.357 614.632ZM493.642 637.907C500.059 633.749 508.477 635.343 512.859 641.609L513.287 642.221C517.912 648.834 516.327 657.965 509.555 662.354C509.236 662.56 508.918 662.766 508.6 662.97C501.834 667.326 492.912 664.95 488.873 657.99L488.529 657.397C484.656 650.721 487.164 642.104 493.642 637.907ZM211.198 646.397C214.969 639.6 223.555 637.214 230.515 640.676C237.434 644.118 240.562 652.398 237.305 659.406L237.064 659.924C233.66 667.25 224.901 670.405 217.667 666.809C217.376 666.665 217.084 666.52 216.793 666.375C209.6 662.785 207.021 653.923 210.922 646.894L211.198 646.397ZM444.133 662.821C451.186 660.188 459.27 663.23 462.294 670.125L462.752 671.17C465.964 678.493 462.744 687.065 455.243 689.837C454.637 690.061 454.029 690.282 453.421 690.501C445.881 693.218 437.703 688.873 435.349 681.212L435.099 680.4C432.864 673.127 437.005 665.482 444.133 662.821ZM264.14 670.648C266.975 663.459 275.575 660.154 282.888 662.656C290.213 665.162 293.815 672.882 291.666 680.32C289.375 688.251 280.904 692.886 273.091 690.223C272.821 690.131 272.552 690.039 272.283 689.946C264.584 687.305 260.955 678.731 263.94 671.158C264.007 670.988 264.074 670.818 264.14 670.648ZM319.919 687.022C321.309 679.498 328.986 674.617 336.58 675.55C344.065 676.47 349.301 682.859 348.898 690.39L348.881 690.72C348.438 698.991 341.032 705.214 332.799 704.299C332.405 704.256 332.012 704.212 331.619 704.167C323.588 703.263 318.314 695.705 319.783 687.759L319.919 687.022ZM390.931 675.691C398.365 674.717 405.367 679.608 406.691 686.988L406.936 688.356C408.358 696.283 403.37 704.076 395.379 705.078C394.55 705.182 393.718 705.278 392.883 705.365C384.963 706.189 378.383 699.809 377.998 691.856L377.944 690.74C377.576 683.143 383.389 676.678 390.931 675.691Z" fill="#F2A63E"/></g>
</svg>
